<svg xmlns="http://www.w3.org/2000/svg" viewBox="0 0 332.9 332.9"><defs><style>.cls-1{fill:#ffdf00;}.cls-2{fill:#fff;}</style></defs><g id="Calque_2" data-name="Calque 2"><g id="Calque_1-2" data-name="Calque 1"><path class="cls-1" d="M332.9,166.45a41.73,41.73,0,0,1-12.3,29.69L245.45,271.3V100.57A13.13,13.13,0,0,0,223,91.29L169.29,145a4,4,0,0,1-5.66,0l-30-30a4,4,0,0,0-6.83,2.83v26.83a8,8,0,0,0,2.34,5.66L160.81,182a8,8,0,0,0,11.31,0l45.23-45.18V299.4l-21.2,21.2a42,42,0,0,1-59.4,0L12.3,196.14a42,42,0,0,1,0-59.39L87.45,61.6V229.44a16,16,0,0,0,16,16h89.83a13,13,0,0,0,0-26.09H119.59a4,4,0,0,1-4-4V33.46L136.75,12.3A41.69,41.69,0,0,1,166.45,0h0a41.66,41.66,0,0,1,29.66,12.3L320.6,136.75A41.73,41.73,0,0,1,332.9,166.45Z"/><path class="cls-2" d="M313.53,189.07l-68.08,68.08V100.57A13.13,13.13,0,0,0,223,91.29L169.29,145a4,4,0,0,1-5.66,0l-30-30a4,4,0,0,0-6.83,2.83v26.83a8,8,0,0,0,2.34,5.66L160.81,182a8,8,0,0,0,11.31,0l45.23-45.18V285.25l-28.27,28.27a32,32,0,0,1-45.26,0L19.37,189.07a32,32,0,0,1,0-45.25L87.45,75.74v153.7a16,16,0,0,0,16,16h89.83a13,13,0,0,0,0-26.09H119.59a4,4,0,0,1-4-4V47.6l28.23-28.23a32,32,0,0,1,45.26,0L313.53,143.82A32,32,0,0,1,313.53,189.07Z"/></g></g></svg>