<svg xmlns="http://www.w3.org/2000/svg" viewBox="0 0 332.9 332.9"><defs><style>.cls-1{fill:#ffdf00;}.cls-2{fill:#77c1ef;}</style></defs><g id="Calque_2" data-name="Calque 2"><g id="Calque_1-2" data-name="Calque 1"><path class="cls-1" d="M320.6,136.75,196.14,12.3A41.63,41.63,0,0,0,166.49,0h0a41.69,41.69,0,0,0-29.7,12.3L115.59,33.46V215.35a4,4,0,0,0,4,4h73.68a13,13,0,1,1,0,26.09H103.44a16,16,0,0,1-16-16V61.61L12.3,136.75a42,42,0,0,0,0,59.39L136.75,320.6a42,42,0,0,0,59.39,0l21.21-21.21V136.83L172.11,182a8,8,0,0,1-11.31,0l-31.67-31.67a8,8,0,0,1-2.34-5.66V117.85a4,4,0,0,1,6.82-2.83l30,30a4,4,0,0,0,5.65,0L223,91.29a13.13,13.13,0,0,1,9.28-3.85h0a13.13,13.13,0,0,1,13.13,13.13V271.29l75.15-75.15a42,42,0,0,0,0-59.39Z"/><path class="cls-2" d="M313.52,189.07l-68.07,68.07V100.57a13.13,13.13,0,0,0-13.13-13.13h0A13.13,13.13,0,0,0,223,91.29L169.28,145a4,4,0,0,1-5.65,0l-30-30a4,4,0,0,0-6.82,2.83v26.83a8,8,0,0,0,2.34,5.66L160.8,182a8,8,0,0,0,11.31,0l45.24-45.18V285.24l-28.28,28.28a32,32,0,0,1-45.25,0L19.37,189.07a32,32,0,0,1,0-45.25L87.44,75.75V229.44a16,16,0,0,0,16,16h89.83a13,13,0,1,0,0-26.09H119.59a4,4,0,0,1-4-4V47.6l28.23-28.23a32,32,0,0,1,45.25,0L313.52,143.82A32,32,0,0,1,313.52,189.07Z"/></g></g></svg>